<svg width="35" height="35" viewBox="0 0 35 35" fill="none" xmlns="http://www.w3.org/2000/svg">
<path d="M17.5 35C27.165 35 35 27.165 35 17.5C35 7.83502 27.165 0 17.5 0C7.83502 0 0 7.83502 0 17.5C0 27.165 7.83502 35 17.5 35Z" fill="#5865F2"/>
<path d="M23.5645 11.9287C22.4299 11.4079 21.2325 11.0366 20.0023 10.824C19.9911 10.8219 19.9795 10.8233 19.9692 10.8282C19.9589 10.833 19.9504 10.841 19.9449 10.851C19.7815 11.1471 19.6332 11.4512 19.5005 11.7622C18.1745 11.5609 16.8258 11.5609 15.4998 11.7622C15.3665 11.4505 15.2161 11.1462 15.0493 10.851C15.0436 10.8412 15.035 10.8334 15.0248 10.8286C15.0145 10.8238 15.0031 10.8222 14.9919 10.824C13.7621 11.0363 12.5651 11.4076 11.431 11.9287C11.4213 11.9328 11.413 11.9399 11.4075 11.9489C9.13895 15.3385 8.51756 18.6447 8.82245 21.9092C8.82332 21.9172 8.82579 21.925 8.82973 21.932C8.83366 21.9391 8.83898 21.9452 8.84535 21.9502C10.1663 22.9287 11.644 23.6757 13.2152 24.1592C13.2263 24.1625 13.2381 24.1624 13.2491 24.1588C13.2601 24.1552 13.2698 24.1483 13.2767 24.1391C13.6141 23.6798 13.9131 23.1934 14.1705 22.685C14.1741 22.6781 14.1761 22.6704 14.1764 22.6626C14.1768 22.6548 14.1755 22.647 14.1726 22.6398C14.1697 22.6325 14.1653 22.6259 14.1597 22.6205C14.1541 22.615 14.1475 22.6108 14.1401 22.6081C13.6686 22.4281 13.2122 22.2109 12.775 21.9587C12.7671 21.9541 12.7604 21.9475 12.7556 21.9397C12.7508 21.9318 12.748 21.9229 12.7474 21.9137C12.7469 21.9045 12.7486 21.8953 12.7525 21.887C12.7563 21.8786 12.7622 21.8713 12.7695 21.8658C12.8611 21.7974 12.9531 21.7256 13.0406 21.6532C13.0483 21.6468 13.0577 21.6427 13.0677 21.6414C13.0777 21.64 13.0878 21.6415 13.097 21.6456C15.9609 22.9534 19.0617 22.9534 21.8917 21.6456C21.901 21.6412 21.9113 21.6395 21.9214 21.6407C21.9316 21.6419 21.9412 21.646 21.9492 21.6525C22.0367 21.7246 22.1286 21.7971 22.2226 21.8658C22.23 21.8713 22.2359 21.8785 22.2398 21.8868C22.2437 21.8952 22.2455 21.9043 22.245 21.9135C22.2445 21.9227 22.2418 21.9316 22.237 21.9395C22.2323 21.9474 22.2257 21.954 22.2178 21.9587C21.7812 22.2133 21.3238 22.4306 20.8506 22.6081C20.8432 22.6109 20.8365 22.6152 20.831 22.6208C20.8254 22.6264 20.821 22.6331 20.8182 22.6404C20.8154 22.6478 20.8142 22.6557 20.8146 22.6635C20.8151 22.6714 20.8172 22.6791 20.8209 22.6861C21.0827 23.1917 21.3812 23.6774 21.714 24.1394C21.7208 24.1489 21.7303 24.156 21.7414 24.1598C21.7524 24.1635 21.7644 24.1637 21.7755 24.1602C23.3489 23.6781 24.8285 22.9311 26.1505 21.9512C26.157 21.9465 26.1624 21.9405 26.1663 21.9335C26.1703 21.9266 26.1727 21.9188 26.1734 21.9109C26.5385 18.1361 25.5623 14.8569 23.586 11.9502C23.5816 11.9407 23.574 11.9331 23.5645 11.9287V11.9287ZM14.5978 19.9216C13.7354 19.9216 13.0255 19.13 13.0255 18.1579C13.0255 17.1859 13.7221 16.3943 14.5978 16.3943C15.4807 16.3943 16.1844 17.1927 16.1701 18.1579C16.1707 19.13 15.4738 19.9216 14.5978 19.9216ZM20.4128 19.9216C19.5504 19.9216 18.8405 19.13 18.8405 18.1579C18.8405 17.1859 19.5371 16.3943 20.4128 16.3943C21.2956 16.3943 21.9994 17.1927 21.985 18.1579C21.9854 19.13 21.2956 19.9216 20.4128 19.9216Z" fill="white"/>
</svg>
