<?xml version="1.0" encoding="iso-8859-1"?>
<!-- Generator: Adobe Illustrator 19.0.0, SVG Export Plug-In . SVG Version: 6.00 Build 0)  -->
<svg version="1.1" id="Layer_1" xmlns="http://www.w3.org/2000/svg" xmlns:xlink="http://www.w3.org/1999/xlink" x="0px" y="0px"
	 viewBox="0 0 512.001 512.001" style="enable-background:new 0 0 512.001 512.001;" xml:space="preserve">
<g>
	<g>
		<g>
			<path d="M109.722,197.009c-24.15-24.15-23.947-63.561,0.682-87.452c23.912-23.195,62.922-22.505,86.96,1.531l53.695,53.696
				c12.679,12.679,33.197,12.68,45.877,0.001l19.383-19.383c12.679-12.678,12.68-33.199,0-45.877l-54.556-54.556
				c-60.315-60.316-158.546-59.914-218.363,1.074c-58.744,59.896-57.721,157.439,2.281,217.442l53.339,53.339
				c12.678,12.678,33.198,12.681,45.877,0.001l19.383-19.382c12.678-12.678,12.682-33.199,0-45.877L109.722,197.009z
				 M121.957,286.775l-49.784-49.783C26.64,191.456,25.731,117.567,70.149,72.279c45.143-46.028,119.46-46.477,165.121-0.817
				l51.001,51.001l-12.272,12.272l-50.142-50.14c-38.427-38.427-101.021-39.291-139.54-1.932
				c-39.596,38.408-40.104,101.823-1.088,140.839l51.001,51.001L121.957,286.775z"/>
			<path d="M467.018,250.225l-54.556-54.555c-12.679-12.679-33.198-12.68-45.877-0.001l-19.384,19.383
				c-12.647,12.648-12.647,33.227,0.001,45.875l54.556,54.558c24.155,24.153,23.943,63.565-0.682,87.45
				c-23.912,23.195-62.922,22.505-86.958-1.531l-53.696-53.696c-12.679-12.679-33.197-12.68-45.877,0l-19.384,19.383
				c-12.647,12.648-12.647,33.227,0.001,45.875l53.34,53.339c60.004,60.007,157.55,61.022,217.44,2.282
				C526.918,408.784,527.425,310.632,467.018,250.225z M439.708,441.839c-45.29,44.419-119.179,43.507-164.712-2.026l-49.784-49.784
				l12.272-12.272l50.142,50.14c38.452,38.452,101.047,39.267,139.538,1.932c39.598-38.409,40.107-101.824,1.089-140.839
				l-51.001-51.001l12.272-12.272l51.002,51C486.171,322.366,485.81,396.622,439.708,441.839z"/>
			<path d="M178.901,160.023l-19.384,19.383c-12.647,12.648-12.647,33.227,0.001,45.875l127.186,127.185
				c12.677,12.68,33.196,12.681,45.877,0.001l19.383-19.381c12.678-12.678,12.682-33.199,0-45.877L224.777,160.023
				C212.127,147.377,191.548,147.377,178.901,160.023z M309.642,322.42L189.565,202.344l12.272-12.272l120.077,120.076
				L309.642,322.42z"/>
		</g>
	</g>
</g>
<g>
</g>
<g>
</g>
<g>
</g>
<g>
</g>
<g>
</g>
<g>
</g>
<g>
</g>
<g>
</g>
<g>
</g>
<g>
</g>
<g>
</g>
<g>
</g>
<g>
</g>
<g>
</g>
<g>
</g>
</svg>
