<svg width="34" height="35" viewBox="0 0 34 35" fill="none" xmlns="http://www.w3.org/2000/svg">
<g clip-path="url(#clip0_14_110)">
<path d="M22.6481 17.1402C19.5307 15.4253 16.5458 13.8487 13.4946 12.2026V22.05C16.7054 20.2532 20.0896 18.6078 22.6614 17.1402H22.6481V17.1402Z" fill="white"/>
<path d="M22.6481 17.1402C19.5307 15.4253 13.4946 12.2026 13.4946 12.2026L21.5423 17.7708C21.543 17.7708 20.0764 18.6078 22.6481 17.1402Z" fill="#E8E0E0"/>
<path d="M14.0814 29.7584C7.60621 29.6357 5.39464 29.5253 4.03527 29.237C3.11556 29.0454 2.31634 28.6201 1.73033 28.0032C1.27742 27.5363 0.917233 26.824 0.637789 25.8357C0.398086 25.0123 0.304728 24.3272 0.171629 22.6539C-0.0321183 18.8772 -0.0806898 15.7896 0.171629 12.3396C0.379793 10.4344 0.48072 8.1727 1.86343 6.85322C2.5163 6.23569 3.27579 5.83828 4.12862 5.674C5.46087 5.41361 11.1368 5.20776 17.0127 5.20776C22.8753 5.20776 28.5638 5.41361 29.8973 5.674C30.9628 5.87984 31.9619 6.49672 32.5486 7.29218C33.8102 9.33504 33.8323 11.8753 33.9603 13.8623C34.0133 14.8091 34.0133 20.185 33.9603 21.1318C33.761 24.272 33.6008 25.3831 33.1478 26.535C32.8678 27.2623 32.6287 27.6461 32.2149 28.0714C31.5659 28.7259 30.7386 29.1613 29.8431 29.3195C24.2397 29.7532 19.4816 29.8474 14.0814 29.7584V29.7584ZM22.6621 17.1402C19.5447 15.4253 16.5598 13.835 13.5086 12.1889V22.037C16.7193 20.2402 20.1042 18.5941 22.6753 17.1266L22.6621 17.1402Z" fill="#CD201F"/>
</g>
<defs>
<clipPath id="clip0_14_110">
<rect width="34" height="35" fill="white"/>
</clipPath>
</defs>
</svg>
